<svg xmlns="http://www.w3.org/2000/svg" width="100" height="100" viewBox="0 0 100 100" fill="none">
<path d="M42.8511 15.6281L43.2352 24.0703C43.5437 30.8557 46.3776 37.2807 51.1806 42.0836C55.9835 46.8866 62.4085 49.7205 69.1939 50.029L77.6361 50.4131L69.1939 50.7973C62.4085 51.1058 55.9835 53.9397 51.1806 58.7427C46.3776 63.5456 43.5437 69.9706 43.2352 76.756L42.8511 85.1982L42.4669 76.756C42.1585 69.9706 39.3245 63.5456 34.5216 58.7427C29.7186 53.9397 23.2936 51.1058 16.5082 50.7973L8.06604 50.4131L16.5082 50.029C23.2936 49.7205 29.7186 46.8866 34.5216 42.0836C39.3245 37.2807 42.1585 30.8557 42.4669 24.0703L42.8511 15.6281Z" fill="#0146B6"/>
<path d="M69.066 15.6281L69.3917 19.5023C69.6056 22.0605 70.719 24.4602 72.5343 26.2755C74.3495 28.0907 76.7492 29.2041 79.3074 29.418L83.1817 29.7438L79.3074 30.0695C76.7492 30.2834 74.3495 31.3968 72.5343 33.2121C70.719 35.0273 69.6056 37.427 69.3917 39.9852L69.066 43.8595L68.7402 39.9852C68.5263 37.427 67.413 35.0273 65.5977 33.2121C63.7825 31.3968 61.3828 30.2834 58.8245 30.0695L54.9503 29.7438L58.8245 29.418C61.3828 29.2041 63.7825 28.0907 65.5977 26.2755C67.413 24.4602 68.5263 22.0605 68.7402 19.5023L69.066 15.6281Z" fill="#2131E5"/>
<path d="M24.7025 59.9916L24.9584 63.0357C25.1265 65.0457 26.0013 66.9312 27.4275 68.3574C28.8538 69.7837 30.7393 70.6585 32.7493 70.8266L35.7933 71.0825L32.7493 71.3385C30.7393 71.5065 28.8538 72.3813 27.4275 73.8076C26.0013 75.2339 25.1265 77.1194 24.9584 79.1294L24.7025 82.1734L24.4465 79.1294C24.2784 77.1194 23.4036 75.2339 21.9774 73.8076C20.5511 72.3813 18.6656 71.5065 16.6556 71.3385L13.6116 71.0825L16.6556 70.8266C18.6656 70.6585 20.5511 69.7837 21.9774 68.3574C23.4036 66.9312 24.2784 65.0457 24.4465 63.0357L24.7025 59.9916Z" fill="#2131E5"/>
<path d="M21.1735 23.19L21.348 25.2655C21.4626 26.636 22.0591 27.9216 23.0315 28.894C24.004 29.8665 25.2896 30.4629 26.66 30.5775L28.7355 30.752L26.66 30.9265C25.2896 31.0411 24.004 31.6376 23.0315 32.61C22.0591 33.5825 21.4626 34.868 21.348 36.2385L21.1735 38.314L20.999 36.2385C20.8844 34.868 20.288 33.5825 19.3155 32.61C18.3431 31.6376 17.0575 31.0411 15.687 30.9265L13.6116 30.752L15.687 30.5775C17.0575 30.4629 18.3431 29.8665 19.3155 28.894C20.288 27.9216 20.8844 26.636 20.999 25.2655L21.1735 23.19Z" fill="#2131E5"/>
<path d="M59.9916 10.5868L60.127 11.2786C60.2991 12.1586 60.7288 12.9642 61.3592 13.5883C61.9895 14.2124 62.7906 14.6255 63.6559 14.7726L65.0329 15.0076L63.756 15.225C62.8683 15.3771 62.0492 15.8091 61.4131 16.4606C60.7769 17.1121 60.3555 17.9505 60.2077 18.8589L59.9916 20.1653L59.7756 18.8589C59.627 17.9512 59.2053 17.1136 58.5693 16.4628C57.9332 15.8121 57.1144 15.3806 56.2272 15.2287L54.9503 15.0076L56.3295 14.7726C57.1948 14.6255 57.9959 14.2124 58.6262 13.5883C59.2566 12.9642 59.6863 12.1586 59.8584 11.2786L59.9916 10.5868Z" fill="#2131E5"/>
<path d="M78.1403 6.04958L78.2757 6.74144C78.4478 7.62144 78.8775 8.42703 79.5079 9.05113C80.1382 9.67524 80.9393 10.0883 81.8046 10.2354L83.1816 10.4704L81.9047 10.6878C81.017 10.84 80.1979 11.2719 79.5618 11.9234C78.9256 12.5749 78.5042 13.4134 78.3564 14.3217L78.1403 15.6281L77.9243 14.3217C77.7757 13.414 77.354 12.5764 76.7179 11.9256C76.0818 11.2749 75.2631 10.8434 74.3759 10.6915L73.099 10.4704L74.4782 10.2354C75.3435 10.0883 76.1446 9.67524 76.7749 9.05113C77.4053 8.42703 77.835 7.62144 78.0071 6.74144L78.1403 6.04958Z" fill="#2131E5"/>
</svg>