<svg width="1728" height="1571" viewBox="0 0 1728 1571" fill="none" xmlns="http://www.w3.org/2000/svg">
<g opacity="0.69">
<path opacity="0.2" d="M1453 242L1456.37 326.943C1459.07 395.217 1483.92 459.864 1526.03 508.19C1568.15 556.517 1624.48 585.031 1683.98 588.135L1758 592L1683.98 595.865C1624.48 598.969 1568.15 627.483 1526.03 675.81C1483.92 724.136 1459.07 788.783 1456.37 857.057L1453 942L1449.63 857.057C1446.93 788.783 1422.08 724.136 1379.97 675.81C1337.85 627.483 1281.52 598.969 1222.02 595.865L1148 592L1222.02 588.135C1281.52 585.031 1337.85 556.517 1379.97 508.19C1422.08 459.864 1446.93 395.217 1449.63 326.943L1453 242Z" fill="#C0C6FF"/>
<path opacity="0.2" d="M235 242L240.875 403.271C245.593 532.893 288.935 655.63 362.391 747.381C435.847 839.132 534.11 893.269 637.886 899.162L767 906.5L637.886 913.838C534.11 919.731 435.847 973.868 362.391 1065.62C288.935 1157.37 245.593 1280.11 240.875 1409.73L235 1571L229.125 1409.73C224.407 1280.11 181.065 1157.37 107.609 1065.62C34.1528 973.868 -64.1104 919.731 -167.886 913.838L-297 906.5L-167.886 899.162C-64.1104 893.269 34.1528 839.132 107.609 747.381C181.065 655.63 224.407 532.893 229.125 403.271L235 242Z" fill="#C0C6FF"/>
<path opacity="0.2" d="M710 162L711.822 202.045C713.285 234.231 726.728 264.707 749.51 287.49C772.293 310.272 802.769 323.715 834.955 325.178L875 327L834.955 328.822C802.769 330.285 772.293 343.728 749.51 366.51C726.728 389.293 713.285 419.769 711.822 451.955L710 492L708.178 451.955C706.715 419.769 693.272 389.293 670.49 366.51C647.707 343.728 617.231 330.285 585.045 328.822L545 327L585.045 325.178C617.231 323.715 647.707 310.272 670.49 287.49C693.272 264.707 706.715 234.231 708.178 202.045L710 162Z" fill="#C0C6FF"/>
<path opacity="0.2" d="M783 137L783.453 146.951C783.816 154.948 787.157 162.521 792.818 168.182C798.479 173.843 806.052 177.184 814.049 177.547L824 178L814.049 178.453C806.052 178.816 798.479 182.157 792.818 187.818C787.157 193.479 783.816 201.052 783.453 209.049L783 219L782.547 209.049C782.184 201.052 778.843 193.479 773.182 187.818C767.521 182.157 759.948 178.816 751.951 178.453L742 178L751.951 177.547C759.948 177.184 767.521 173.843 773.182 168.182C778.843 162.521 782.184 154.948 782.547 146.951L783 137Z" fill="#C0C6FF"/>
<path opacity="0.2" d="M1203 924L1203.45 933.951C1203.82 941.948 1207.16 949.521 1212.82 955.182C1218.48 960.843 1226.05 964.184 1234.05 964.547L1244 965L1234.05 965.453C1226.05 965.816 1218.48 969.157 1212.82 974.818C1207.16 980.479 1203.82 988.052 1203.45 996.049L1203 1006L1202.55 996.049C1202.18 988.052 1198.84 980.479 1193.18 974.818C1187.52 969.157 1179.95 965.816 1171.95 965.453L1162 965L1171.95 964.547C1179.95 964.184 1187.52 960.843 1193.18 955.182C1198.84 949.521 1202.18 941.948 1202.55 933.951L1203 924Z" fill="#C0C6FF"/>
<path opacity="0.2" d="M1226 -9L1226.45 0.950523C1226.82 8.94826 1230.16 16.5212 1235.82 22.1823C1241.48 27.8434 1249.05 31.1836 1257.05 31.5472L1267 32L1257.05 32.4528C1249.05 32.8164 1241.48 36.1566 1235.82 41.8177C1230.16 47.4788 1226.82 55.0517 1226.45 63.0495L1226 73L1225.55 63.0495C1225.18 55.0517 1221.84 47.4788 1216.18 41.8177C1210.52 36.1566 1202.95 32.8164 1194.95 32.4528L1185 32L1194.95 31.5472C1202.95 31.1836 1210.52 27.8434 1216.18 22.1823C1221.84 16.5212 1225.18 8.94826 1225.55 0.950523L1226 -9Z" fill="#C0C6FF"/>
<path opacity="0.2" d="M868 177L868.298 183.553C868.538 188.82 870.737 193.807 874.465 197.535C878.193 201.263 883.18 203.462 888.447 203.702L895 204L888.447 204.298C883.18 204.538 878.193 206.737 874.465 210.465C870.737 214.193 868.538 219.18 868.298 224.447L868 231L867.702 224.447C867.462 219.18 865.263 214.193 861.535 210.465C857.807 206.737 852.82 204.538 847.553 204.298L841 204L847.553 203.702C852.82 203.462 857.807 201.263 861.535 197.535C865.263 193.807 867.462 188.82 867.702 183.553L868 177Z" fill="#C0C6FF"/>
<path opacity="0.2" d="M1671 851L1671.3 857.553C1671.54 862.82 1673.74 867.807 1677.47 871.535C1681.19 875.263 1686.18 877.462 1691.45 877.702L1698 878L1691.45 878.298C1686.18 878.538 1681.19 880.737 1677.47 884.465C1673.74 888.193 1671.54 893.18 1671.3 898.447L1671 905L1670.7 898.447C1670.46 893.18 1668.26 888.193 1664.53 884.465C1660.81 880.737 1655.82 878.538 1650.55 878.298L1644 878L1650.55 877.702C1655.82 877.462 1660.81 875.263 1664.53 871.535C1668.26 867.807 1670.46 862.82 1670.7 857.553L1671 851Z" fill="#C0C6FF"/>
<path opacity="0.2" d="M27 601L27.2982 607.553C27.5376 612.82 29.7373 617.807 33.4653 621.535C37.1934 625.263 42.1804 627.462 47.4472 627.702L54 628L47.4472 628.298C42.1804 628.538 37.1934 630.737 33.4653 634.465C29.7373 638.193 27.5376 643.18 27.2982 648.447L27 655L26.7018 648.447C26.4624 643.18 24.2627 638.193 20.5347 634.465C16.8066 630.737 11.8196 628.538 6.55278 628.298L0 628L6.55278 627.702C11.8196 627.462 16.8066 625.263 20.5347 621.535C24.2627 617.807 26.4624 612.82 26.7018 607.553L27 601Z" fill="#C0C6FF"/>
</g>
</svg>
