<svg width="297" height="94" viewBox="0 0 297 94" fill="none" xmlns="http://www.w3.org/2000/svg">
<path d="M92.0955 61.19L92.7602 57.2845L109.684 38.3939H95.8764L96.8181 32.8264H119.254L118.603 36.732L101.652 55.6226H115.473L114.532 61.19H92.0955ZM118.738 61.19L122.284 39.9173H129.056L125.511 61.19H118.738ZM126.148 37.4244C125.188 37.4244 124.407 37.1059 123.807 36.4688C123.207 35.8317 122.972 35.07 123.101 34.1837C123.23 33.2881 123.683 32.5263 124.458 31.8985C125.234 31.2707 126.097 30.9567 127.048 30.9567C128.008 30.9567 128.779 31.2707 129.361 31.8985C129.952 32.5263 130.183 33.2881 130.053 34.1837C129.943 35.07 129.499 35.8317 128.724 36.4688C127.957 37.1059 127.099 37.4244 126.148 37.4244ZM141.303 32.8264L136.594 61.19H129.821L134.53 32.8264H141.303ZM152.386 32.8264L147.677 61.19H140.904L145.613 32.8264H152.386ZM151.987 61.19L155.533 39.9173H162.305L158.76 61.19H151.987ZM159.397 37.4244C158.437 37.4244 157.656 37.1059 157.056 36.4688C156.456 35.8317 156.221 35.07 156.35 34.1837C156.479 33.2881 156.932 32.5263 157.707 31.8985C158.483 31.2707 159.346 30.9567 160.297 30.9567C161.257 30.9567 162.028 31.2707 162.61 31.8985C163.201 32.5263 163.432 33.2881 163.302 34.1837C163.192 35.07 162.748 35.8317 161.973 36.4688C161.206 37.1059 160.348 37.4244 159.397 37.4244ZM172.987 61.5917C170.743 61.5917 168.892 61.13 167.433 60.2067C165.983 59.2834 164.963 57.9954 164.372 56.3427C163.781 54.69 163.666 52.7696 164.026 50.5814C164.386 48.4024 165.129 46.4912 166.256 44.8477C167.382 43.2043 168.822 41.9255 170.577 41.0114C172.331 40.0974 174.321 39.6403 176.546 39.6403C178.78 39.6403 180.622 40.102 182.072 41.0253C183.531 41.9486 184.555 43.2366 185.146 44.8893C185.746 46.542 185.867 48.467 185.506 50.6645C185.146 52.8435 184.398 54.7547 183.263 56.3981C182.127 58.0324 180.687 59.3065 178.942 60.2206C177.197 61.1347 175.212 61.5917 172.987 61.5917ZM173.748 56.4812C174.579 56.4812 175.322 56.232 175.978 55.7334C176.643 55.2348 177.201 54.5377 177.654 53.6421C178.106 52.7465 178.429 51.7078 178.623 50.526C178.817 49.3626 178.836 48.3424 178.679 47.4653C178.531 46.5789 178.217 45.891 177.737 45.4017C177.257 44.9031 176.606 44.6538 175.784 44.6538C174.953 44.6538 174.205 44.9077 173.541 45.4155C172.876 45.9141 172.317 46.6112 171.865 47.5068C171.422 48.3932 171.103 49.4319 170.909 50.6229C170.715 51.7863 170.692 52.8065 170.84 53.6837C170.988 54.5608 171.306 55.2486 171.795 55.7472C172.285 56.2366 172.936 56.4812 173.748 56.4812ZM196.053 49.0579L194.031 61.19H187.258L190.804 39.9173H197.244L196.607 43.8229H196.842C197.507 42.521 198.472 41.5008 199.737 40.7621C201.002 40.0143 202.424 39.6403 204.002 39.6403C205.489 39.6403 206.731 39.9727 207.728 40.6375C208.725 41.3023 209.431 42.2348 209.847 43.4351C210.262 44.6261 210.332 46.0249 210.055 47.6315L207.783 61.19H201.011L203.047 48.961C203.25 47.7884 203.107 46.8697 202.617 46.205C202.137 45.531 201.352 45.194 200.263 45.194C199.552 45.194 198.901 45.3509 198.31 45.6648C197.729 45.9695 197.239 46.4081 196.842 46.9805C196.454 47.553 196.191 48.2454 196.053 49.0579Z" fill="#1B1B1B"/>
<path d="M212.904 61.19L217.613 32.8264H221.892L217.793 57.5061H230.645L230.036 61.19H212.904ZM234.585 61.19L238.131 39.9173H242.272L238.726 61.19H234.585ZM241.067 36.5935C240.347 36.5935 239.737 36.3534 239.239 35.8733C238.749 35.3839 238.523 34.8023 238.56 34.1283C238.597 33.445 238.883 32.8633 239.419 32.3832C239.954 31.8939 240.578 31.6492 241.288 31.6492C242.009 31.6492 242.613 31.8939 243.103 32.3832C243.592 32.8633 243.823 33.445 243.795 34.1283C243.758 34.8023 243.472 35.3839 242.937 35.8733C242.41 36.3534 241.787 36.5935 241.067 36.5935ZM250.53 48.5594L248.452 61.19H244.311L247.857 39.9173H251.831L251.25 43.3797H251.513C252.187 42.244 253.106 41.3392 254.269 40.6652C255.441 39.982 256.826 39.6403 258.424 39.6403C259.864 39.6403 261.074 39.945 262.052 40.5544C263.04 41.1545 263.737 42.0501 264.143 43.2412C264.559 44.4322 264.624 45.9049 264.337 47.6592L262.066 61.19H257.925L260.099 48.1577C260.349 46.6158 260.146 45.4109 259.49 44.543C258.844 43.6659 257.814 43.2273 256.402 43.2273C255.441 43.2273 254.55 43.4351 253.729 43.8506C252.916 44.266 252.228 44.8754 251.665 45.6787C251.111 46.4727 250.733 47.4329 250.53 48.5594ZM275.555 32.8264L280.514 43.9198H280.735L289.349 32.8264H294.377L283.214 47.0082L289.723 61.19H284.779L279.793 50.249H279.572L270.93 61.19H265.902L277.328 47.0082L270.667 32.8264H275.555Z" fill="#0146B6"/>
<path d="M42.8511 15.6281L43.2352 24.0703C43.5437 30.8557 46.3776 37.2807 51.1806 42.0836C55.9835 46.8866 62.4085 49.7205 69.1939 50.029L77.6361 50.4131L69.1939 50.7973C62.4085 51.1058 55.9835 53.9397 51.1806 58.7427C46.3776 63.5456 43.5437 69.9706 43.2352 76.756L42.8511 85.1982L42.4669 76.756C42.1585 69.9706 39.3245 63.5456 34.5216 58.7427C29.7186 53.9397 23.2936 51.1058 16.5082 50.7973L8.06604 50.4131L16.5082 50.029C23.2936 49.7205 29.7186 46.8866 34.5216 42.0836C39.3245 37.2807 42.1585 30.8557 42.4669 24.0703L42.8511 15.6281Z" fill="#0146B6"/>
<path d="M69.066 15.6281L69.3917 19.5023C69.6056 22.0605 70.719 24.4602 72.5343 26.2755C74.3495 28.0907 76.7492 29.2041 79.3074 29.418L83.1817 29.7438L79.3074 30.0695C76.7492 30.2834 74.3495 31.3968 72.5343 33.2121C70.719 35.0273 69.6056 37.427 69.3917 39.9852L69.066 43.8595L68.7402 39.9852C68.5263 37.427 67.413 35.0273 65.5977 33.2121C63.7825 31.3968 61.3828 30.2834 58.8245 30.0695L54.9503 29.7438L58.8245 29.418C61.3828 29.2041 63.7825 28.0907 65.5977 26.2755C67.413 24.4602 68.5263 22.0605 68.7402 19.5023L69.066 15.6281Z" fill="#2131E5"/>
<path d="M24.7025 59.9916L24.9584 63.0357C25.1265 65.0457 26.0013 66.9312 27.4275 68.3574C28.8538 69.7837 30.7393 70.6585 32.7493 70.8266L35.7933 71.0825L32.7493 71.3385C30.7393 71.5065 28.8538 72.3813 27.4275 73.8076C26.0013 75.2339 25.1265 77.1194 24.9584 79.1294L24.7025 82.1734L24.4465 79.1294C24.2784 77.1194 23.4036 75.2339 21.9774 73.8076C20.5511 72.3813 18.6656 71.5065 16.6556 71.3385L13.6116 71.0825L16.6556 70.8266C18.6656 70.6585 20.5511 69.7837 21.9774 68.3574C23.4036 66.9312 24.2784 65.0457 24.4465 63.0357L24.7025 59.9916Z" fill="#2131E5"/>
<path d="M21.1735 23.19L21.348 25.2655C21.4626 26.636 22.0591 27.9216 23.0315 28.894C24.004 29.8665 25.2896 30.4629 26.66 30.5775L28.7355 30.752L26.66 30.9265C25.2896 31.0411 24.004 31.6376 23.0315 32.61C22.0591 33.5825 21.4626 34.868 21.348 36.2385L21.1735 38.314L20.999 36.2385C20.8844 34.868 20.288 33.5825 19.3155 32.61C18.3431 31.6376 17.0575 31.0411 15.687 30.9265L13.6116 30.752L15.687 30.5775C17.0575 30.4629 18.3431 29.8665 19.3155 28.894C20.288 27.9216 20.8844 26.636 20.999 25.2655L21.1735 23.19Z" fill="#2131E5"/>
<path d="M59.9916 10.5868L60.127 11.2786C60.2991 12.1586 60.7288 12.9642 61.3592 13.5883C61.9895 14.2124 62.7906 14.6255 63.6559 14.7726L65.0329 15.0076L63.756 15.225C62.8683 15.3771 62.0492 15.8091 61.4131 16.4606C60.7769 17.1121 60.3555 17.9505 60.2077 18.8589L59.9916 20.1653L59.7756 18.8589C59.627 17.9512 59.2053 17.1136 58.5693 16.4628C57.9332 15.8121 57.1144 15.3806 56.2272 15.2287L54.9503 15.0076L56.3295 14.7726C57.1948 14.6255 57.9959 14.2124 58.6262 13.5883C59.2566 12.9642 59.6863 12.1586 59.8584 11.2786L59.9916 10.5868Z" fill="#2131E5"/>
<path d="M78.1403 6.04958L78.2757 6.74144C78.4478 7.62144 78.8775 8.42703 79.5079 9.05113C80.1382 9.67524 80.9393 10.0883 81.8046 10.2354L83.1816 10.4704L81.9047 10.6878C81.017 10.84 80.1979 11.2719 79.5618 11.9234C78.9256 12.5749 78.5042 13.4134 78.3564 14.3217L78.1403 15.6281L77.9243 14.3217C77.7757 13.414 77.354 12.5764 76.7179 11.9256C76.0818 11.2749 75.2631 10.8434 74.3759 10.6915L73.099 10.4704L74.4782 10.2354C75.3435 10.0883 76.1446 9.67524 76.7749 9.05113C77.4053 8.42703 77.835 7.62144 78.0071 6.74144L78.1403 6.04958Z" fill="#2131E5"/>
</svg>
