<svg width="609" height="185" viewBox="0 0 609 185" fill="none" xmlns="http://www.w3.org/2000/svg">
<path d="M198.561 111L199.908 103.089L234.19 64.8232H206.22L208.127 53.5455H253.575L252.256 61.4567L217.918 99.7223H245.916L244.009 111H198.561ZM252.53 111L259.712 67.9091H273.43L266.248 111H252.53ZM267.539 62.8594C265.594 62.8594 264.013 62.2141 262.798 60.9236C261.582 59.6332 261.105 58.0902 261.367 56.2947C261.629 54.4806 262.545 52.9376 264.116 51.6658C265.687 50.3941 267.436 49.7582 269.362 49.7582C271.307 49.7582 272.869 50.3941 274.047 51.6658C275.244 52.9376 275.712 54.4806 275.45 56.2947C275.226 58.0902 274.328 59.6332 272.757 60.9236C271.205 62.2141 269.465 62.8594 267.539 62.8594ZM298.237 53.5455L288.699 111H274.98L284.518 53.5455H298.237ZM320.687 53.5455L311.149 111H297.43L306.969 53.5455H320.687ZM319.881 111L327.062 67.9091H340.781L333.599 111H319.881ZM334.889 62.8594C332.944 62.8594 331.364 62.2141 330.148 60.9236C328.933 59.6332 328.456 58.0902 328.718 56.2947C328.979 54.4806 329.896 52.9376 331.467 51.6658C333.038 50.3941 334.787 49.7582 336.713 49.7582C338.658 49.7582 340.22 50.3941 341.398 51.6658C342.595 52.9376 343.062 54.4806 342.801 56.2947C342.576 58.0902 341.678 59.6332 340.107 60.9236C338.555 62.2141 336.816 62.8594 334.889 62.8594ZM362.417 111.814C357.873 111.814 354.123 110.878 351.168 109.008C348.231 107.138 346.165 104.529 344.968 101.181C343.771 97.8333 343.537 93.9432 344.266 89.5107C344.996 85.0968 346.501 81.2254 348.783 77.8963C351.065 74.5672 353.982 71.9769 357.536 70.1254C361.089 68.2738 365.12 67.348 369.627 67.348C374.153 67.348 377.884 68.2831 380.821 70.1534C383.776 72.0237 385.852 74.6327 387.049 77.9805C388.264 81.3282 388.508 85.2277 387.778 89.679C387.049 94.0928 385.534 97.9643 383.233 101.293C380.933 104.604 378.015 107.185 374.481 109.036C370.946 110.888 366.925 111.814 362.417 111.814ZM363.96 101.462C365.644 101.462 367.149 100.957 368.477 99.9467C369.824 98.9368 370.955 97.5247 371.872 95.7106C372.788 93.8964 373.443 91.7924 373.835 89.3984C374.228 87.0419 374.265 84.9753 373.948 83.1985C373.648 81.4031 373.012 80.0097 372.04 79.0185C371.067 78.0085 369.749 77.5036 368.084 77.5036C366.401 77.5036 364.886 78.0179 363.54 79.0465C362.193 80.0565 361.061 81.4685 360.145 83.2827C359.247 85.0781 358.602 87.1822 358.209 89.5948C357.816 91.9513 357.77 94.018 358.069 95.7947C358.368 97.5715 359.013 98.9648 360.005 99.9748C360.996 100.966 362.314 101.462 363.96 101.462ZM409.141 86.4247L405.045 111H391.327L398.509 67.9091H411.554L410.263 75.8203H410.74C412.087 73.1832 414.041 71.1166 416.604 69.6204C419.166 68.1055 422.046 67.348 425.244 67.348C428.255 67.348 430.771 68.0213 432.791 69.3679C434.811 70.7145 436.241 72.6035 437.083 75.0348C437.925 77.4474 438.065 80.2809 437.504 83.5352L432.903 111H419.185L423.309 86.2283C423.72 83.8531 423.43 81.9922 422.439 80.6456C421.466 79.2803 419.877 78.5977 417.67 78.5977C416.23 78.5977 414.911 78.9156 413.714 79.5515C412.536 80.1687 411.545 81.0571 410.74 82.2166C409.955 83.3762 409.422 84.7789 409.141 86.4247Z" fill="#1B1B1B"/>
<path d="M443.276 111L452.814 53.5455H461.483L453.179 103.538H479.213L477.979 111H443.276ZM487.194 111L494.376 67.9091H502.764L495.583 111H487.194ZM500.324 61.1761C498.865 61.1761 497.631 60.6899 496.621 59.7173C495.629 58.7261 495.171 57.5478 495.246 56.1825C495.321 54.7985 495.901 53.6203 496.985 52.6477C498.07 51.6565 499.332 51.1609 500.773 51.1609C502.231 51.1609 503.456 51.6565 504.448 52.6477C505.439 53.6203 505.906 54.7985 505.85 56.1825C505.776 57.5478 505.196 58.7261 504.111 59.7173C503.045 60.6899 501.782 61.1761 500.324 61.1761ZM519.492 85.4148L515.283 111H506.895L514.077 67.9091H522.129L520.95 74.9226H521.483C522.849 72.6222 524.71 70.7893 527.066 69.424C529.441 68.04 532.247 67.348 535.482 67.348C538.4 67.348 540.85 67.9652 542.832 69.1996C544.834 70.4152 546.246 72.2294 547.069 74.642C547.91 77.0547 548.041 80.0378 547.461 83.5913L542.861 111H534.472L538.877 84.6012C539.382 81.4779 538.97 79.0372 537.642 77.2791C536.333 75.5024 534.248 74.614 531.386 74.614C529.441 74.614 527.637 75.0348 525.972 75.8764C524.326 76.718 522.933 77.9524 521.792 79.5795C520.67 81.188 519.903 83.133 519.492 85.4148ZM570.185 53.5455L580.228 76.0167H580.677L598.127 53.5455H608.31L585.699 82.2727L598.884 111H588.869L578.77 88.8374H578.321L560.815 111H550.631L573.776 82.2727L560.282 53.5455H570.185Z" fill="#0146B6"/>
<path d="M203.324 140.778C205.025 140.778 205.876 140.147 205.876 138.886C205.876 138.373 205.744 137.969 205.48 137.676C205.231 137.383 204.761 137.126 204.072 136.906L202.268 136.312C200.112 135.608 199.034 134.193 199.034 132.066C199.034 130.834 199.415 129.822 200.178 129.03C200.955 128.223 202.165 127.82 203.808 127.82C204.497 127.82 205.179 127.901 205.854 128.062C206.529 128.209 207.247 128.451 208.01 128.788L207.196 131.054C206.492 130.775 205.891 130.577 205.392 130.46C204.908 130.328 204.409 130.262 203.896 130.262C203.221 130.262 202.686 130.387 202.29 130.636C201.909 130.871 201.718 131.303 201.718 131.934C201.718 132.403 201.85 132.792 202.114 133.1C202.393 133.393 202.847 133.643 203.478 133.848L205.282 134.442C206.367 134.809 207.181 135.344 207.724 136.048C208.281 136.737 208.56 137.654 208.56 138.798C208.56 140.118 208.142 141.189 207.306 142.01C206.47 142.817 205.157 143.22 203.368 143.22C202.664 143.22 201.931 143.139 201.168 142.978C200.42 142.802 199.599 142.509 198.704 142.098L199.518 139.832C200.339 140.184 201.036 140.433 201.608 140.58C202.195 140.712 202.767 140.778 203.324 140.778ZM221.003 140.47V143H212.335V128.04H220.783V130.57H214.975V134.156H220.123V136.686H214.975V140.47H221.003ZM232.974 143L232.05 140.074H226.924L226 143H223.382L228.376 128.04H230.708L235.724 143H232.974ZM228.354 135.498L227.672 137.654H231.28L230.598 135.498L229.498 131.714L228.354 135.498ZM241.743 137.5V143H239.103V128.04H244.097C245.607 128.04 246.766 128.429 247.573 129.206C248.394 129.969 248.805 130.995 248.805 132.286V133.232C248.805 134.083 248.621 134.831 248.255 135.476C247.888 136.121 247.36 136.613 246.671 136.95C247.873 139.003 248.9 141.02 249.751 143H246.737C246.003 141.167 245.131 139.333 244.119 137.5H241.743ZM244.097 130.46H241.743V135.08H244.097C244.742 135.08 245.233 134.919 245.571 134.596C245.923 134.259 246.099 133.804 246.099 133.232V132.286C246.099 131.729 245.923 131.289 245.571 130.966C245.233 130.629 244.742 130.46 244.097 130.46ZM255.413 137.082C255.413 138.153 255.647 139.033 256.117 139.722C256.586 140.397 257.356 140.734 258.427 140.734C258.867 140.734 259.321 140.675 259.791 140.558C260.275 140.441 260.869 140.243 261.573 139.964L262.387 142.252C261.595 142.604 260.861 142.853 260.187 143C259.527 143.147 258.889 143.22 258.273 143.22C257.041 143.22 256.007 142.956 255.171 142.428C254.349 141.9 253.733 141.174 253.323 140.25C252.912 139.326 252.707 138.27 252.707 137.082V133.936C252.707 132.748 252.912 131.692 253.323 130.768C253.733 129.844 254.349 129.125 255.171 128.612C256.007 128.084 257.041 127.82 258.273 127.82C258.874 127.82 259.497 127.893 260.143 128.04C260.788 128.172 261.492 128.407 262.255 128.744L261.441 131.076C260.766 130.797 260.201 130.599 259.747 130.482C259.292 130.365 258.852 130.306 258.427 130.306C257.356 130.306 256.586 130.643 256.117 131.318C255.647 131.993 255.413 132.865 255.413 133.936V137.082ZM274.249 143V136.686H268.661V143H266.021V128.04H268.661V134.156H274.249V128.04H276.889V143H274.249ZM290.437 140.778C292.138 140.778 292.989 140.147 292.989 138.886C292.989 138.373 292.857 137.969 292.593 137.676C292.344 137.383 291.874 137.126 291.185 136.906L289.381 136.312C287.225 135.608 286.147 134.193 286.147 132.066C286.147 130.834 286.528 129.822 287.291 129.03C288.068 128.223 289.278 127.82 290.921 127.82C291.61 127.82 292.292 127.901 292.967 128.062C293.642 128.209 294.36 128.451 295.123 128.788L294.309 131.054C293.605 130.775 293.004 130.577 292.505 130.46C292.021 130.328 291.522 130.262 291.009 130.262C290.334 130.262 289.799 130.387 289.403 130.636C289.022 130.871 288.831 131.303 288.831 131.934C288.831 132.403 288.963 132.792 289.227 133.1C289.506 133.393 289.96 133.643 290.591 133.848L292.395 134.442C293.48 134.809 294.294 135.344 294.837 136.048C295.394 136.737 295.673 137.654 295.673 138.798C295.673 140.118 295.255 141.189 294.419 142.01C293.583 142.817 292.27 143.22 290.481 143.22C289.777 143.22 289.044 143.139 288.281 142.978C287.533 142.802 286.712 142.509 285.817 142.098L286.631 139.832C287.452 140.184 288.149 140.433 288.721 140.58C289.308 140.712 289.88 140.778 290.437 140.778ZM302.33 128.04L306.51 138.27L310.668 128.04H313.55V143H311.02V137.28L311.35 132.044L307.632 141.24H305.278L301.648 132.022L301.978 137.28V143H299.448V128.04H302.33ZM326.532 143L325.608 140.074H320.482L319.558 143H316.94L321.934 128.04H324.266L329.282 143H326.532ZM321.912 135.498L321.23 137.654H324.838L324.156 135.498L323.056 131.714L321.912 135.498ZM335.301 137.5V143H332.661V128.04H337.655C339.166 128.04 340.324 128.429 341.131 129.206C341.952 129.969 342.363 130.995 342.363 132.286V133.232C342.363 134.083 342.18 134.831 341.813 135.476C341.446 136.121 340.918 136.613 340.229 136.95C341.432 139.003 342.458 141.02 343.309 143H340.295C339.562 141.167 338.689 139.333 337.677 137.5H335.301ZM337.655 130.46H335.301V135.08H337.655C338.3 135.08 338.792 134.919 339.129 134.596C339.481 134.259 339.657 133.804 339.657 133.232V132.286C339.657 131.729 339.481 131.289 339.129 130.966C338.792 130.629 338.3 130.46 337.655 130.46ZM344.285 130.57V128.04H355.285V130.57H351.105V143H348.465V130.57H344.285ZM367.195 140.47V143H358.527V128.04H366.975V130.57H361.167V134.156H366.315V136.686H361.167V140.47H367.195ZM373.842 137.5V143H371.202V128.04H376.196C377.707 128.04 378.866 128.429 379.672 129.206C380.494 129.969 380.904 130.995 380.904 132.286V133.232C380.904 134.083 380.721 134.831 380.354 135.476C379.988 136.121 379.46 136.613 378.77 136.95C379.973 139.003 381 141.02 381.85 143H378.836C378.103 141.167 377.23 139.333 376.218 137.5H373.842ZM376.196 130.46H373.842V135.08H376.196C376.842 135.08 377.333 134.919 377.67 134.596C378.022 134.259 378.198 133.804 378.198 133.232V132.286C378.198 131.729 378.022 131.289 377.67 130.966C377.333 130.629 376.842 130.46 376.196 130.46ZM387.072 143H384.41V140.382H387.072V143ZM401.578 143V128.04H406.132C407.246 128.04 408.126 128.201 408.772 128.524C409.432 128.847 409.901 129.301 410.18 129.888C410.473 130.475 410.62 131.164 410.62 131.956V132.572C410.62 133.731 410.121 134.618 409.124 135.234C409.828 135.513 410.363 135.916 410.73 136.444C411.096 136.972 411.28 137.603 411.28 138.336V138.952C411.28 139.759 411.133 140.47 410.84 141.086C410.546 141.687 410.062 142.157 409.388 142.494C408.713 142.831 407.811 143 406.682 143H401.578ZM406.132 130.46H404.218V134.2H406.132C406.718 134.2 407.158 134.068 407.452 133.804C407.76 133.525 407.914 133.151 407.914 132.682V131.956C407.914 131.487 407.76 131.12 407.452 130.856C407.158 130.592 406.718 130.46 406.132 130.46ZM406.682 136.62H404.218V140.58H406.682C407.298 140.58 407.767 140.433 408.09 140.14C408.412 139.847 408.574 139.451 408.574 138.952V138.226C408.574 137.727 408.412 137.339 408.09 137.06C407.767 136.767 407.298 136.62 406.682 136.62ZM425.909 133.936V137.082C425.909 138.989 425.432 140.492 424.479 141.592C423.526 142.677 422.132 143.22 420.299 143.22C418.451 143.22 417.05 142.677 416.097 141.592C415.158 140.492 414.689 138.989 414.689 137.082V133.936C414.689 132.029 415.158 130.533 416.097 129.448C417.05 128.363 418.451 127.82 420.299 127.82C422.132 127.82 423.526 128.363 424.479 129.448C425.432 130.533 425.909 132.029 425.909 133.936ZM423.203 133.936C423.203 132.733 422.968 131.831 422.499 131.23C422.03 130.614 421.296 130.306 420.299 130.306C419.302 130.306 418.568 130.614 418.099 131.23C417.63 131.831 417.395 132.733 417.395 133.936V137.082C417.395 138.285 417.63 139.194 418.099 139.81C418.568 140.426 419.302 140.734 420.299 140.734C421.296 140.734 422.03 140.426 422.499 139.81C422.968 139.194 423.203 138.285 423.203 137.082V133.936ZM440.861 133.936V137.082C440.861 138.989 440.384 140.492 439.431 141.592C438.478 142.677 437.084 143.22 435.251 143.22C433.403 143.22 432.002 142.677 431.049 141.592C430.11 140.492 429.641 138.989 429.641 137.082V133.936C429.641 132.029 430.11 130.533 431.049 129.448C432.002 128.363 433.403 127.82 435.251 127.82C437.084 127.82 438.478 128.363 439.431 129.448C440.384 130.533 440.861 132.029 440.861 133.936ZM438.155 133.936C438.155 132.733 437.92 131.831 437.451 131.23C436.982 130.614 436.248 130.306 435.251 130.306C434.254 130.306 433.52 130.614 433.051 131.23C432.582 131.831 432.347 132.733 432.347 133.936V137.082C432.347 138.285 432.582 139.194 433.051 139.81C433.52 140.426 434.254 140.734 435.251 140.734C436.248 140.734 436.982 140.426 437.451 139.81C437.92 139.194 438.155 138.285 438.155 137.082V133.936ZM453.173 143L449.433 136.466C449.184 136.745 448.927 137.023 448.663 137.302C448.414 137.581 448.15 137.867 447.871 138.16V143H445.231V128.04H447.871V135.146C448.986 133.87 449.939 132.66 450.731 131.516C451.523 130.357 452.205 129.199 452.777 128.04H455.659C455.029 129.301 454.354 130.497 453.635 131.626C452.931 132.741 452.183 133.775 451.391 134.728L456.363 143H453.173ZM462.55 128.04L466.73 138.27L470.888 128.04H473.77V143H471.24V137.28L471.57 132.044L467.852 141.24H465.498L461.868 132.022L462.198 137.28V143H459.668V128.04H462.55ZM486.752 143L485.828 140.074H480.702L479.778 143H477.16L482.154 128.04H484.486L489.502 143H486.752ZM482.132 135.498L481.45 137.654H485.058L484.376 135.498L483.276 131.714L482.132 135.498ZM495.521 137.5V143H492.881V128.04H497.875C499.386 128.04 500.544 128.429 501.351 129.206C502.172 129.969 502.583 130.995 502.583 132.286V133.232C502.583 134.083 502.4 134.831 502.033 135.476C501.666 136.121 501.138 136.613 500.449 136.95C501.652 139.003 502.678 141.02 503.529 143H500.515C499.782 141.167 498.909 139.333 497.897 137.5H495.521ZM497.875 130.46H495.521V135.08H497.875C498.52 135.08 499.012 134.919 499.349 134.596C499.701 134.259 499.877 133.804 499.877 133.232V132.286C499.877 131.729 499.701 131.289 499.349 130.966C499.012 130.629 498.52 130.46 497.875 130.46ZM515.109 143L511.369 136.466C511.12 136.745 510.863 137.023 510.599 137.302C510.35 137.581 510.086 137.867 509.807 138.16V143H507.167V128.04H509.807V135.146C510.922 133.87 511.875 132.66 512.667 131.516C513.459 130.357 514.141 129.199 514.713 128.04H517.595C516.965 129.301 516.29 130.497 515.571 131.626C514.867 132.741 514.119 133.775 513.327 134.728L518.299 143H515.109ZM526.888 143V128.04H531.442C532.557 128.04 533.437 128.201 534.082 128.524C534.742 128.847 535.212 129.301 535.49 129.888C535.784 130.475 535.93 131.164 535.93 131.956V132.572C535.93 133.731 535.432 134.618 534.434 135.234C535.138 135.513 535.674 135.916 536.04 136.444C536.407 136.972 536.59 137.603 536.59 138.336V138.952C536.59 139.759 536.444 140.47 536.15 141.086C535.857 141.687 535.373 142.157 534.698 142.494C534.024 142.831 533.122 143 531.992 143H526.888ZM531.442 130.46H529.528V134.2H531.442C532.029 134.2 532.469 134.068 532.762 133.804C533.07 133.525 533.224 133.151 533.224 132.682V131.956C533.224 131.487 533.07 131.12 532.762 130.856C532.469 130.592 532.029 130.46 531.442 130.46ZM531.992 136.62H529.528V140.58H531.992C532.608 140.58 533.078 140.433 533.4 140.14C533.723 139.847 533.884 139.451 533.884 138.952V138.226C533.884 137.727 533.723 137.339 533.4 137.06C533.078 136.767 532.608 136.62 531.992 136.62ZM549.305 140.47V143H540.637V128.04H549.085V130.57H543.277V134.156H548.425V136.686H543.277V140.47H549.305ZM551.53 130.57V128.04H562.53V130.57H558.35V143H555.71V130.57H551.53ZM563.99 130.57V128.04H574.99V130.57H570.81V143H568.17V130.57H563.99ZM586.901 140.47V143H578.233V128.04H586.681V130.57H580.873V134.156H586.021V136.686H580.873V140.47H586.901ZM593.547 137.5V143H590.907V128.04H595.901C597.412 128.04 598.571 128.429 599.377 129.206C600.199 129.969 600.609 130.995 600.609 132.286V133.232C600.609 134.083 600.426 134.831 600.059 135.476C599.693 136.121 599.165 136.613 598.475 136.95C599.678 139.003 600.705 141.02 601.555 143H598.541C597.808 141.167 596.935 139.333 595.923 137.5H593.547ZM595.901 130.46H593.547V135.08H595.901C596.547 135.08 597.038 134.919 597.375 134.596C597.727 134.259 597.903 133.804 597.903 133.232V132.286C597.903 131.729 597.727 131.289 597.375 130.966C597.038 130.629 596.547 130.46 595.901 130.46Z" fill="#1B1B1B"/>
<path d="M85 31L85.762 47.746C86.3739 61.2056 91.9953 73.9503 101.523 83.4775C111.05 93.0047 123.794 98.6261 137.254 99.238L154 100L137.254 100.762C123.794 101.374 111.05 106.995 101.523 116.523C91.9953 126.05 86.3739 138.794 85.762 152.254L85 169L84.238 152.254C83.6261 138.794 78.0047 126.05 68.4775 116.523C58.9503 106.995 46.2056 101.374 32.746 100.762L16 100L32.746 99.238C46.2056 98.6261 58.9503 93.0047 68.4775 83.4775C78.0047 73.9503 83.6261 61.2056 84.238 47.746L85 31Z" fill="#0146B6"/>
<path d="M137 31L137.646 38.6849C138.07 43.7595 140.279 48.5195 143.88 52.1203C147.48 55.721 152.241 57.9296 157.315 58.3538L165 59L157.315 59.6462C152.241 60.0705 147.48 62.279 143.88 65.8797C140.279 69.4805 138.07 74.2406 137.646 79.3151L137 87L136.354 79.3151C135.93 74.2406 133.721 69.4805 130.12 65.8797C126.52 62.279 121.759 60.0705 116.685 59.6462L109 59L116.685 58.3538C121.759 57.9296 126.52 55.721 130.12 52.1203C133.721 48.5195 135.93 43.7595 136.354 38.6849L137 31Z" fill="#2131E5"/>
<path d="M49 119L49.5077 125.038C49.8411 129.025 51.5763 132.765 54.4055 135.595C57.2347 138.424 60.9747 140.159 64.9618 140.492L71 141L64.9618 141.508C60.9747 141.841 57.2347 143.576 54.4055 146.405C51.5763 149.235 49.8411 152.975 49.5077 156.962L49 163L48.4923 156.962C48.1589 152.975 46.4237 149.235 43.5945 146.405C40.7653 143.576 37.0253 141.841 33.0382 141.508L27 141L33.0382 140.492C37.0253 140.159 40.7653 138.424 43.5945 135.595C46.4237 132.765 48.1589 129.025 48.4923 125.038L49 119Z" fill="#2131E5"/>
<path d="M42 46L42.3462 50.1169C42.5735 52.8354 43.7566 55.3855 45.6856 57.3144C47.6145 59.2434 50.1646 60.4265 52.8831 60.6538L57 61L52.8831 61.3462C50.1646 61.5735 47.6145 62.7566 45.6856 64.6856C43.7566 66.6145 42.5735 69.1646 42.3462 71.8831L42 76L41.6538 71.8831C41.4265 69.1646 40.2434 66.6145 38.3144 64.6856C36.3855 62.7566 33.8354 61.5735 31.1169 61.3462L27 61L31.1169 60.6538C33.8354 60.4265 36.3855 59.2434 38.3144 57.3144C40.2434 55.3855 41.4265 52.8354 41.6538 50.1169L42 46Z" fill="#2131E5"/>
<path d="M119 21L119.269 22.3724C119.61 24.118 120.462 25.7159 121.713 26.9539C122.963 28.1919 124.552 29.0112 126.269 29.303L129 29.7692L126.467 30.2004C124.706 30.5022 123.081 31.3591 121.82 32.6514C120.558 33.9437 119.722 35.6069 119.429 37.4087L119 40L118.571 37.4087C118.277 35.6082 117.44 33.9466 116.179 32.6558C114.917 31.3649 113.293 30.5091 111.533 30.2077L109 29.7692L111.736 29.303C113.452 29.0112 115.041 28.1919 116.292 26.9539C117.542 25.7159 118.394 24.118 118.736 22.3724L119 21Z" fill="#2131E5"/>
<path d="M155 12L155.269 13.3724C155.61 15.118 156.462 16.7159 157.713 17.9539C158.963 19.1919 160.552 20.0112 162.269 20.303L165 20.7692L162.467 21.2004C160.706 21.5022 159.081 22.3591 157.82 23.6514C156.558 24.9437 155.722 26.6069 155.429 28.4087L155 31L154.571 28.4087C154.277 26.6082 153.44 24.9466 152.179 23.6558C150.917 22.3649 149.293 21.5091 147.533 21.2077L145 20.7692L147.736 20.303C149.452 20.0112 151.041 19.1919 152.292 17.9539C153.542 16.7159 154.394 15.118 154.736 13.3724L155 12Z" fill="#2131E5"/>
</svg>
