<svg width="609" height="185" viewBox="0 0 609 185" fill="none" xmlns="http://www.w3.org/2000/svg">
<path d="M198.561 111L199.908 103.089L234.19 64.8232H206.22L208.127 53.5455H253.575L252.256 61.4567L217.918 99.7223H245.916L244.009 111H198.561ZM252.53 111L259.712 67.9091H273.43L266.248 111H252.53ZM267.539 62.8594C265.594 62.8594 264.013 62.2141 262.798 60.9236C261.582 59.6332 261.105 58.0902 261.367 56.2947C261.629 54.4806 262.545 52.9376 264.116 51.6658C265.687 50.3941 267.436 49.7582 269.362 49.7582C271.307 49.7582 272.869 50.3941 274.047 51.6658C275.244 52.9376 275.712 54.4806 275.45 56.2947C275.226 58.0902 274.328 59.6332 272.757 60.9236C271.205 62.2141 269.465 62.8594 267.539 62.8594ZM298.237 53.5455L288.699 111H274.98L284.518 53.5455H298.237ZM320.687 53.5455L311.149 111H297.43L306.969 53.5455H320.687ZM319.881 111L327.062 67.9091H340.781L333.599 111H319.881ZM334.889 62.8594C332.944 62.8594 331.364 62.2141 330.148 60.9236C328.933 59.6332 328.456 58.0902 328.718 56.2947C328.979 54.4806 329.896 52.9376 331.467 51.6658C333.038 50.3941 334.787 49.7582 336.713 49.7582C338.658 49.7582 340.22 50.3941 341.398 51.6658C342.595 52.9376 343.062 54.4806 342.801 56.2947C342.576 58.0902 341.678 59.6332 340.107 60.9236C338.555 62.2141 336.816 62.8594 334.889 62.8594ZM362.417 111.814C357.873 111.814 354.123 110.878 351.168 109.008C348.231 107.138 346.165 104.529 344.968 101.181C343.771 97.8333 343.537 93.9432 344.266 89.5107C344.996 85.0968 346.501 81.2254 348.783 77.8963C351.065 74.5672 353.982 71.9769 357.536 70.1254C361.089 68.2738 365.12 67.348 369.627 67.348C374.153 67.348 377.884 68.2831 380.821 70.1534C383.776 72.0237 385.852 74.6327 387.049 77.9805C388.264 81.3282 388.508 85.2277 387.778 89.679C387.049 94.0928 385.534 97.9643 383.233 101.293C380.933 104.604 378.015 107.185 374.481 109.036C370.946 110.888 366.925 111.814 362.417 111.814ZM363.96 101.462C365.644 101.462 367.149 100.957 368.477 99.9467C369.824 98.9368 370.955 97.5247 371.872 95.7106C372.788 93.8964 373.443 91.7924 373.835 89.3984C374.228 87.0419 374.265 84.9753 373.948 83.1985C373.648 81.4031 373.012 80.0097 372.04 79.0185C371.067 78.0085 369.749 77.5036 368.084 77.5036C366.401 77.5036 364.886 78.0179 363.54 79.0465C362.193 80.0565 361.061 81.4685 360.145 83.2827C359.247 85.0781 358.602 87.1822 358.209 89.5948C357.816 91.9513 357.77 94.018 358.069 95.7947C358.368 97.5715 359.013 98.9648 360.005 99.9748C360.996 100.966 362.314 101.462 363.96 101.462ZM409.141 86.4247L405.045 111H391.327L398.509 67.9091H411.554L410.263 75.8203H410.74C412.087 73.1832 414.041 71.1166 416.604 69.6204C419.166 68.1055 422.046 67.348 425.244 67.348C428.255 67.348 430.771 68.0213 432.791 69.3679C434.811 70.7145 436.241 72.6035 437.083 75.0348C437.925 77.4474 438.065 80.2809 437.504 83.5352L432.903 111H419.185L423.309 86.2283C423.72 83.8531 423.43 81.9922 422.439 80.6456C421.466 79.2803 419.877 78.5977 417.67 78.5977C416.23 78.5977 414.911 78.9156 413.714 79.5515C412.536 80.1687 411.545 81.0571 410.74 82.2166C409.955 83.3762 409.422 84.7789 409.141 86.4247Z" fill="#1B1B1B"/>
<path d="M443.276 111L452.814 53.5455H461.483L453.179 103.538H479.213L477.979 111H443.276ZM487.194 111L494.376 67.9091H502.764L495.583 111H487.194ZM500.324 61.1761C498.865 61.1761 497.631 60.6899 496.621 59.7173C495.629 58.7261 495.171 57.5478 495.246 56.1825C495.321 54.7985 495.901 53.6203 496.985 52.6477C498.07 51.6565 499.332 51.1609 500.773 51.1609C502.231 51.1609 503.456 51.6565 504.448 52.6477C505.439 53.6203 505.906 54.7985 505.85 56.1825C505.776 57.5478 505.196 58.7261 504.111 59.7173C503.045 60.6899 501.782 61.1761 500.324 61.1761ZM519.492 85.4148L515.283 111H506.895L514.077 67.9091H522.129L520.95 74.9226H521.483C522.849 72.6222 524.71 70.7893 527.066 69.424C529.441 68.04 532.247 67.348 535.482 67.348C538.4 67.348 540.85 67.9652 542.832 69.1996C544.834 70.4152 546.246 72.2294 547.069 74.642C547.91 77.0547 548.041 80.0378 547.461 83.5913L542.861 111H534.472L538.877 84.6012C539.382 81.4779 538.97 79.0372 537.642 77.2791C536.333 75.5024 534.248 74.614 531.386 74.614C529.441 74.614 527.637 75.0348 525.972 75.8764C524.326 76.718 522.933 77.9524 521.792 79.5795C520.67 81.188 519.903 83.133 519.492 85.4148ZM570.185 53.5455L580.228 76.0167H580.677L598.127 53.5455H608.31L585.699 82.2727L598.884 111H588.869L578.77 88.8374H578.321L560.815 111H550.631L573.776 82.2727L560.282 53.5455H570.185Z" fill="#0146B6"/>
<path d="M203.88 144.368C204.888 144.368 205.664 144.152 206.208 143.72C206.752 143.272 207.024 142.624 207.024 141.776C207.024 141.072 206.832 140.48 206.448 140C206.08 139.52 205.472 139.152 204.624 138.896L202.68 138.32C201.464 137.952 200.568 137.4 199.992 136.664C199.416 135.912 199.128 134.992 199.128 133.904C199.128 133.072 199.288 132.32 199.608 131.648C199.944 130.976 200.472 130.44 201.192 130.04C201.928 129.64 202.888 129.44 204.072 129.44C204.792 129.44 205.536 129.528 206.304 129.704C207.072 129.864 207.848 130.128 208.632 130.496L207.96 132.296C207.192 131.96 206.496 131.72 205.872 131.576C205.264 131.416 204.68 131.336 204.12 131.336C203.208 131.336 202.496 131.528 201.984 131.912C201.488 132.28 201.24 132.896 201.24 133.76C201.24 134.384 201.408 134.912 201.744 135.344C202.08 135.76 202.68 136.104 203.544 136.376L205.488 136.952C207.92 137.672 209.136 139.224 209.136 141.608C209.136 142.984 208.72 144.104 207.888 144.968C207.056 145.816 205.72 146.24 203.88 146.24C203.128 146.24 202.328 146.152 201.48 145.976C200.648 145.784 199.784 145.488 198.888 145.088L199.536 143.312C200.384 143.696 201.144 143.968 201.816 144.128C202.504 144.288 203.192 144.368 203.88 144.368ZM221.805 144.056V146H212.685V129.68H221.565V131.648H214.773V136.76H220.845V138.728H214.773V144.056H221.805ZM234.075 146L232.851 142.208H226.659L225.435 146H223.395L228.819 129.68H230.787L236.235 146H234.075ZM228.171 137.504L227.259 140.312H232.227L231.315 137.504L229.755 132.464L228.171 137.504ZM241.374 139.616V146H239.286V129.68H244.398C245.934 129.68 247.118 130.088 247.95 130.904C248.798 131.704 249.222 132.776 249.222 134.12V135.152C249.222 136.112 248.998 136.944 248.55 137.648C248.118 138.352 247.494 138.872 246.678 139.208C247.366 140.312 248.006 141.432 248.598 142.568C249.19 143.704 249.734 144.848 250.23 146H247.83C246.918 143.824 245.854 141.696 244.638 139.616H241.374ZM244.398 131.6H241.374V137.696H244.398C245.214 137.696 245.862 137.472 246.342 137.024C246.822 136.56 247.062 135.936 247.062 135.152V134.12C247.062 133.32 246.822 132.704 246.342 132.272C245.862 131.824 245.214 131.6 244.398 131.6ZM255.116 139.64C255.116 141.144 255.412 142.304 256.004 143.12C256.612 143.92 257.54 144.32 258.788 144.32C259.332 144.32 259.868 144.256 260.396 144.128C260.924 144 261.556 143.776 262.292 143.456L262.988 145.232C262.204 145.584 261.46 145.84 260.756 146C260.052 146.16 259.372 146.24 258.716 146.24C256.828 146.24 255.396 145.648 254.42 144.464C253.444 143.28 252.956 141.672 252.956 139.64V136.04C252.956 134.008 253.444 132.4 254.42 131.216C255.396 130.032 256.828 129.44 258.716 129.44C259.372 129.44 260.052 129.52 260.756 129.68C261.476 129.84 262.204 130.096 262.94 130.448L262.268 132.248C260.972 131.672 259.812 131.384 258.788 131.384C257.54 131.384 256.612 131.784 256.004 132.584C255.412 133.384 255.116 134.536 255.116 136.04V139.64ZM275.619 146V138.728H268.491V146H266.403V129.68H268.491V136.76H275.619V129.68H277.707V146H275.619ZM291.349 144.368C292.357 144.368 293.133 144.152 293.677 143.72C294.221 143.272 294.493 142.624 294.493 141.776C294.493 141.072 294.301 140.48 293.917 140C293.549 139.52 292.941 139.152 292.093 138.896L290.149 138.32C288.933 137.952 288.037 137.4 287.461 136.664C286.885 135.912 286.597 134.992 286.597 133.904C286.597 133.072 286.757 132.32 287.077 131.648C287.413 130.976 287.941 130.44 288.661 130.04C289.397 129.64 290.357 129.44 291.541 129.44C292.261 129.44 293.005 129.528 293.773 129.704C294.541 129.864 295.317 130.128 296.101 130.496L295.429 132.296C294.661 131.96 293.965 131.72 293.341 131.576C292.733 131.416 292.149 131.336 291.589 131.336C290.677 131.336 289.965 131.528 289.453 131.912C288.957 132.28 288.709 132.896 288.709 133.76C288.709 134.384 288.877 134.912 289.213 135.344C289.549 135.76 290.149 136.104 291.013 136.376L292.957 136.952C295.389 137.672 296.605 139.224 296.605 141.608C296.605 142.984 296.189 144.104 295.357 144.968C294.525 145.816 293.189 146.24 291.349 146.24C290.597 146.24 289.797 146.152 288.949 145.976C288.117 145.784 287.253 145.488 286.357 145.088L287.005 143.312C287.853 143.696 288.613 143.968 289.285 144.128C289.973 144.288 290.661 144.368 291.349 144.368ZM302.601 129.68L307.569 141.776L312.561 129.68H314.937V146H312.897V139.016L313.161 132.728L308.481 144.08H306.513L301.929 132.68L302.193 139.016V146H300.153V129.68H302.601ZM328.692 146L327.468 142.208H321.276L320.052 146H318.012L323.436 129.68H325.404L330.852 146H328.692ZM322.788 137.504L321.876 140.312H326.844L325.932 137.504L324.372 132.464L322.788 137.504ZM335.991 139.616V146H333.903V129.68H339.015C340.551 129.68 341.735 130.088 342.567 130.904C343.415 131.704 343.839 132.776 343.839 134.12V135.152C343.839 136.112 343.615 136.944 343.167 137.648C342.735 138.352 342.111 138.872 341.295 139.208C341.983 140.312 342.623 141.432 343.215 142.568C343.807 143.704 344.351 144.848 344.847 146H342.447C341.535 143.824 340.471 141.696 339.255 139.616H335.991ZM339.015 131.6H335.991V137.696H339.015C339.831 137.696 340.479 137.472 340.959 137.024C341.439 136.56 341.679 135.936 341.679 135.152V134.12C341.679 133.32 341.439 132.704 340.959 132.272C340.479 131.824 339.831 131.6 339.015 131.6ZM346.085 131.648V129.68H357.677V131.648H352.925V146H350.837V131.648H346.085ZM369.648 144.056V146H360.528V129.68H369.408V131.648H362.616V136.76H368.688V138.728H362.616V144.056H369.648ZM375.366 139.616V146H373.278V129.68H378.39C379.926 129.68 381.11 130.088 381.942 130.904C382.79 131.704 383.214 132.776 383.214 134.12V135.152C383.214 136.112 382.99 136.944 382.542 137.648C382.11 138.352 381.486 138.872 380.67 139.208C381.358 140.312 381.998 141.432 382.59 142.568C383.182 143.704 383.726 144.848 384.222 146H381.822C380.91 143.824 379.846 141.696 378.63 139.616H375.366ZM378.39 131.6H375.366V137.696H378.39C379.206 137.696 379.854 137.472 380.334 137.024C380.814 136.56 381.054 135.936 381.054 135.152V134.12C381.054 133.32 380.814 132.704 380.334 132.272C379.854 131.824 379.206 131.6 378.39 131.6ZM388.556 146H386.348V143.816H388.556V146ZM397.536 146V129.68H402.336C403.904 129.68 405.056 130.064 405.792 130.832C406.544 131.584 406.92 132.6 406.92 133.88V134.408C406.92 135.112 406.76 135.736 406.44 136.28C406.12 136.824 405.656 137.256 405.048 137.576C405.896 137.848 406.536 138.296 406.968 138.92C407.416 139.528 407.64 140.264 407.64 141.128V141.656C407.64 142.968 407.256 144.024 406.488 144.824C405.736 145.608 404.552 146 402.936 146H397.536ZM402.336 131.6H399.624V136.76H402.336C403.136 136.76 403.736 136.56 404.136 136.16C404.552 135.744 404.76 135.176 404.76 134.456V133.88C404.76 133.176 404.552 132.624 404.136 132.224C403.736 131.808 403.136 131.6 402.336 131.6ZM402.936 138.68H399.624V144.104H402.936C403.784 144.104 404.416 143.888 404.832 143.456C405.264 143.024 405.48 142.424 405.48 141.656V141.08C405.48 140.344 405.264 139.76 404.832 139.328C404.416 138.896 403.784 138.68 402.936 138.68ZM422.687 136.04V139.616C422.687 141.648 422.175 143.264 421.151 144.464C420.143 145.648 418.687 146.24 416.783 146.24C414.879 146.24 413.415 145.648 412.391 144.464C411.383 143.264 410.879 141.648 410.879 139.616V136.04C410.879 134.024 411.383 132.424 412.391 131.24C413.415 130.04 414.879 129.44 416.783 129.44C418.687 129.44 420.143 130.04 421.151 131.24C422.175 132.424 422.687 134.024 422.687 136.04ZM420.527 136.04C420.527 134.552 420.207 133.408 419.567 132.608C418.943 131.792 418.015 131.384 416.783 131.384C415.567 131.384 414.639 131.792 413.999 132.608C413.359 133.408 413.039 134.552 413.039 136.04V139.616C413.039 141.12 413.359 142.28 413.999 143.096C414.639 143.912 415.567 144.32 416.783 144.32C418.015 144.32 418.943 143.912 419.567 143.096C420.207 142.28 420.527 141.12 420.527 139.616V136.04ZM438.226 136.04V139.616C438.226 141.648 437.714 143.264 436.69 144.464C435.682 145.648 434.226 146.24 432.322 146.24C430.418 146.24 428.954 145.648 427.93 144.464C426.922 143.264 426.418 141.648 426.418 139.616V136.04C426.418 134.024 426.922 132.424 427.93 131.24C428.954 130.04 430.418 129.44 432.322 129.44C434.226 129.44 435.682 130.04 436.69 131.24C437.714 132.424 438.226 134.024 438.226 136.04ZM436.066 136.04C436.066 134.552 435.746 133.408 435.106 132.608C434.482 131.792 433.554 131.384 432.322 131.384C431.106 131.384 430.178 131.792 429.538 132.608C428.898 133.408 428.578 134.552 428.578 136.04V139.616C428.578 141.12 428.898 142.28 429.538 143.096C430.178 143.912 431.106 144.32 432.322 144.32C433.554 144.32 434.482 143.912 435.106 143.096C435.746 142.28 436.066 141.12 436.066 139.616V136.04ZM451.557 146L446.901 138.296C446.565 138.648 446.213 139.008 445.845 139.376C445.493 139.744 445.125 140.112 444.741 140.48V146H442.653V129.68H444.741V138.152C446.245 136.632 447.501 135.192 448.509 133.832C449.517 132.472 450.373 131.088 451.077 129.68H453.333C452.613 131.088 451.861 132.368 451.077 133.52C450.309 134.656 449.429 135.792 448.437 136.928L454.101 146H451.557ZM459.398 129.68L464.366 141.776L469.358 129.68H471.734V146H469.694V139.016L469.958 132.728L465.278 144.08H463.31L458.726 132.68L458.99 139.016V146H456.95V129.68H459.398ZM485.489 146L484.265 142.208H478.073L476.849 146H474.809L480.233 129.68H482.201L487.649 146H485.489ZM479.585 137.504L478.673 140.312H483.641L482.729 137.504L481.169 132.464L479.585 137.504ZM492.788 139.616V146H490.7V129.68H495.812C497.348 129.68 498.532 130.088 499.364 130.904C500.212 131.704 500.636 132.776 500.636 134.12V135.152C500.636 136.112 500.412 136.944 499.964 137.648C499.532 138.352 498.908 138.872 498.092 139.208C498.78 140.312 499.42 141.432 500.012 142.568C500.604 143.704 501.148 144.848 501.644 146H499.244C498.332 143.824 497.268 141.696 496.052 139.616H492.788ZM495.812 131.6H492.788V137.696H495.812C496.628 137.696 497.276 137.472 497.756 137.024C498.236 136.56 498.476 135.936 498.476 135.152V134.12C498.476 133.32 498.236 132.704 497.756 132.272C497.276 131.824 496.628 131.6 495.812 131.6ZM514.018 146L509.362 138.296C509.026 138.648 508.674 139.008 508.306 139.376C507.954 139.744 507.586 140.112 507.202 140.48V146H505.114V129.68H507.202V138.152C508.706 136.632 509.962 135.192 510.97 133.832C511.978 132.472 512.834 131.088 513.538 129.68H515.794C515.074 131.088 514.322 132.368 513.538 133.52C512.77 134.656 511.89 135.792 510.898 136.928L516.562 146H514.018ZM524.638 146V129.68H529.438C531.006 129.68 532.158 130.064 532.894 130.832C533.646 131.584 534.022 132.6 534.022 133.88V134.408C534.022 135.112 533.862 135.736 533.542 136.28C533.222 136.824 532.758 137.256 532.15 137.576C532.998 137.848 533.638 138.296 534.07 138.92C534.518 139.528 534.742 140.264 534.742 141.128V141.656C534.742 142.968 534.358 144.024 533.59 144.824C532.838 145.608 531.654 146 530.038 146H524.638ZM529.438 131.6H526.726V136.76H529.438C530.238 136.76 530.838 136.56 531.238 136.16C531.654 135.744 531.862 135.176 531.862 134.456V133.88C531.862 133.176 531.654 132.624 531.238 132.224C530.838 131.808 530.238 131.6 529.438 131.6ZM530.038 138.68H526.726V144.104H530.038C530.886 144.104 531.518 143.888 531.934 143.456C532.366 143.024 532.582 142.424 532.582 141.656V141.08C532.582 140.344 532.366 139.76 531.934 139.328C531.518 138.896 530.886 138.68 530.038 138.68ZM547.797 144.056V146H538.677V129.68H547.557V131.648H540.765V136.76H546.837V138.728H540.765V144.056H547.797ZM549.195 131.648V129.68H560.787V131.648H556.035V146H553.947V131.648H549.195ZM561.406 131.648V129.68H572.998V131.648H568.246V146H566.158V131.648H561.406ZM584.969 144.056V146H575.849V129.68H584.729V131.648H577.937V136.76H584.009V138.728H577.937V144.056H584.969ZM590.687 139.616V146H588.599V129.68H593.711C595.247 129.68 596.431 130.088 597.263 130.904C598.111 131.704 598.535 132.776 598.535 134.12V135.152C598.535 136.112 598.311 136.944 597.863 137.648C597.431 138.352 596.807 138.872 595.991 139.208C596.679 140.312 597.319 141.432 597.911 142.568C598.503 143.704 599.047 144.848 599.543 146H597.143C596.231 143.824 595.167 141.696 593.951 139.616H590.687ZM593.711 131.6H590.687V137.696H593.711C594.527 137.696 595.175 137.472 595.655 137.024C596.135 136.56 596.375 135.936 596.375 135.152V134.12C596.375 133.32 596.135 132.704 595.655 132.272C595.175 131.824 594.527 131.6 593.711 131.6Z" fill="#1B1B1B"/>
<path d="M85 31L85.762 47.746C86.3739 61.2056 91.9953 73.9503 101.523 83.4775C111.05 93.0047 123.794 98.6261 137.254 99.238L154 100L137.254 100.762C123.794 101.374 111.05 106.995 101.523 116.523C91.9953 126.05 86.3739 138.794 85.762 152.254L85 169L84.238 152.254C83.6261 138.794 78.0047 126.05 68.4775 116.523C58.9503 106.995 46.2056 101.374 32.746 100.762L16 100L32.746 99.238C46.2056 98.6261 58.9503 93.0047 68.4775 83.4775C78.0047 73.9503 83.6261 61.2056 84.238 47.746L85 31Z" fill="#0146B6"/>
<path d="M137 31L137.646 38.6849C138.07 43.7595 140.279 48.5195 143.88 52.1203C147.48 55.721 152.241 57.9296 157.315 58.3538L165 59L157.315 59.6462C152.241 60.0705 147.48 62.279 143.88 65.8797C140.279 69.4805 138.07 74.2406 137.646 79.3151L137 87L136.354 79.3151C135.93 74.2406 133.721 69.4805 130.12 65.8797C126.52 62.279 121.759 60.0705 116.685 59.6462L109 59L116.685 58.3538C121.759 57.9296 126.52 55.721 130.12 52.1203C133.721 48.5195 135.93 43.7595 136.354 38.6849L137 31Z" fill="#2131E5"/>
<path d="M49 119L49.5077 125.038C49.8411 129.025 51.5763 132.765 54.4055 135.595C57.2347 138.424 60.9747 140.159 64.9618 140.492L71 141L64.9618 141.508C60.9747 141.841 57.2347 143.576 54.4055 146.405C51.5763 149.235 49.8411 152.975 49.5077 156.962L49 163L48.4923 156.962C48.1589 152.975 46.4237 149.235 43.5945 146.405C40.7653 143.576 37.0253 141.841 33.0382 141.508L27 141L33.0382 140.492C37.0253 140.159 40.7653 138.424 43.5945 135.595C46.4237 132.765 48.1589 129.025 48.4923 125.038L49 119Z" fill="#2131E5"/>
<path d="M42 46L42.3462 50.1169C42.5735 52.8354 43.7566 55.3855 45.6856 57.3144C47.6145 59.2434 50.1646 60.4265 52.8831 60.6538L57 61L52.8831 61.3462C50.1646 61.5735 47.6145 62.7566 45.6856 64.6856C43.7566 66.6145 42.5735 69.1646 42.3462 71.8831L42 76L41.6538 71.8831C41.4265 69.1646 40.2434 66.6145 38.3144 64.6856C36.3855 62.7566 33.8354 61.5735 31.1169 61.3462L27 61L31.1169 60.6538C33.8354 60.4265 36.3855 59.2434 38.3144 57.3144C40.2434 55.3855 41.4265 52.8354 41.6538 50.1169L42 46Z" fill="#2131E5"/>
<path d="M119 21L119.269 22.3724C119.61 24.118 120.462 25.7159 121.713 26.9539C122.963 28.1919 124.552 29.0112 126.269 29.303L129 29.7692L126.467 30.2004C124.706 30.5022 123.081 31.3591 121.82 32.6514C120.558 33.9437 119.722 35.6069 119.429 37.4087L119 40L118.571 37.4087C118.277 35.6082 117.44 33.9466 116.179 32.6558C114.917 31.3649 113.293 30.5091 111.533 30.2077L109 29.7692L111.736 29.303C113.452 29.0112 115.041 28.1919 116.292 26.9539C117.542 25.7159 118.394 24.118 118.736 22.3724L119 21Z" fill="#2131E5"/>
<path d="M155 12L155.269 13.3724C155.61 15.118 156.462 16.7159 157.713 17.9539C158.963 19.1919 160.552 20.0112 162.269 20.303L165 20.7692L162.467 21.2004C160.706 21.5022 159.081 22.3591 157.82 23.6514C156.558 24.9437 155.722 26.6069 155.429 28.4087L155 31L154.571 28.4087C154.277 26.6082 153.44 24.9466 152.179 23.6558C150.917 22.3649 149.293 21.5091 147.533 21.2077L145 20.7692L147.736 20.303C149.452 20.0112 151.041 19.1919 152.292 17.9539C153.542 16.7159 154.394 15.118 154.736 13.3724L155 12Z" fill="#2131E5"/>
</svg>
