<svg width="185" height="75" viewBox="0 0 185 75" fill="none" xmlns="http://www.w3.org/2000/svg">
<path d="M37.568 52.632H40.136L43.832 62.376C44.04 62.936 44.232 63.456 44.408 63.936C44.584 64.4 44.736 64.816 44.864 65.184C45.024 65.6 45.16 65.984 45.272 66.336H45.32C45.416 65.984 45.536 65.6 45.68 65.184C45.808 64.816 45.952 64.4 46.112 63.936C46.272 63.456 46.464 62.936 46.688 62.376L50.456 52.632H53.024L53.864 69H51.824L51.416 60C51.384 59.216 51.36 58.552 51.344 58.008C51.328 57.464 51.32 57.016 51.32 56.664V55.656H51.272C51.176 55.896 51.056 56.224 50.912 56.64C50.784 56.992 50.616 57.448 50.408 58.008C50.216 58.552 49.976 59.216 49.688 60L46.304 69H44.264L40.856 60C40.552 59.232 40.304 58.576 40.112 58.032C39.92 57.472 39.76 57.016 39.632 56.664C39.488 56.248 39.376 55.912 39.296 55.656H39.248C39.264 55.912 39.28 56.248 39.296 56.664C39.312 57.336 39.288 58.448 39.224 60L38.744 69H36.704L37.568 52.632ZM66.0935 68.712C65.7255 68.824 65.3415 68.92 64.9415 69C64.5575 69.08 64.1255 69.152 63.6455 69.216C63.1815 69.28 62.6935 69.312 62.1815 69.312C61.3815 69.312 60.6375 69.2 59.9495 68.976C59.2615 68.752 58.6615 68.392 58.1495 67.896C57.6375 67.4 57.2295 66.76 56.9255 65.976C56.6375 65.176 56.4935 64.2 56.4935 63.048C56.4935 62.008 56.6375 61.096 56.9255 60.312C57.2135 59.512 57.6055 58.848 58.1015 58.32C58.6135 57.776 59.2055 57.368 59.8775 57.096C60.5655 56.824 61.3095 56.688 62.1095 56.688C62.8935 56.688 63.5735 56.84 64.1495 57.144C64.7255 57.448 65.1975 57.864 65.5655 58.392C65.9495 58.904 66.2295 59.512 66.4055 60.216C66.5975 60.904 66.6935 61.632 66.6935 62.4L66.3335 63.456H58.5815C58.5815 63.952 58.6455 64.448 58.7735 64.944C58.9015 65.44 59.1175 65.888 59.4215 66.288C59.7415 66.688 60.1495 67.016 60.6455 67.272C61.1575 67.512 61.7895 67.632 62.5415 67.632C63.0215 67.632 63.4615 67.608 63.8615 67.56C64.2615 67.496 64.6055 67.432 64.8935 67.368C65.1975 67.288 65.4775 67.2 65.7335 67.104L66.0935 68.712ZM64.7015 61.92C64.7015 61.808 64.6775 61.56 64.6295 61.176C64.5815 60.792 64.4695 60.392 64.2935 59.976C64.1175 59.56 63.8455 59.192 63.4775 58.872C63.1095 58.536 62.6215 58.368 62.0135 58.368C61.3415 58.368 60.7895 58.512 60.3575 58.8C59.9255 59.072 59.5815 59.4 59.3255 59.784C59.0695 60.168 58.8935 60.56 58.7975 60.96C58.7015 61.36 58.6535 61.68 58.6535 61.92H64.7015ZM69.3301 59.112C69.3301 58.568 69.2821 57.912 69.1861 57.144L70.9861 56.904L71.2501 58.416C71.6821 58.096 72.1061 57.816 72.5221 57.576C72.9381 57.336 73.3861 57.128 73.8661 56.952C74.3461 56.776 74.8341 56.688 75.3301 56.688C76.1301 56.688 76.7621 56.832 77.2261 57.12C77.6901 57.392 78.0341 57.864 78.2581 58.536C78.9141 58.072 79.5941 57.648 80.2981 57.264C81.0181 56.88 81.7621 56.688 82.5301 56.688C83.1221 56.688 83.6261 56.768 84.0421 56.928C84.4581 57.072 84.7941 57.32 85.0501 57.672C85.3061 58.024 85.4901 58.488 85.6021 59.064C85.7141 59.64 85.7701 60.36 85.7701 61.224V69H83.8501V61.44C83.8501 60.96 83.8421 60.536 83.8261 60.168C83.8101 59.784 83.7541 59.464 83.6581 59.208C83.5621 58.936 83.4021 58.728 83.1781 58.584C82.9701 58.44 82.6661 58.368 82.2661 58.368C81.8981 58.368 81.5461 58.424 81.2101 58.536C80.8901 58.632 80.5541 58.776 80.2021 58.968C79.8501 59.16 79.3061 59.552 78.5701 60.144V69H76.6501V61.44C76.6501 60.96 76.6421 60.536 76.6261 60.168C76.6101 59.784 76.5541 59.464 76.4581 59.208C76.3621 58.936 76.2021 58.728 75.9781 58.584C75.7701 58.44 75.4661 58.368 75.0661 58.368C74.6501 58.368 74.2181 58.456 73.7701 58.632C73.3221 58.808 72.8981 59.016 72.4981 59.256C72.0981 59.496 71.6821 59.776 71.2501 60.096V69H69.3301V59.112ZM89.1337 51.024L91.0537 50.808V57.96C91.4057 57.72 91.7737 57.512 92.1577 57.336C92.4777 57.176 92.8377 57.032 93.2377 56.904C93.6377 56.76 94.0377 56.688 94.4377 56.688C95.0937 56.688 95.7097 56.816 96.2857 57.072C96.8777 57.328 97.3897 57.712 97.8217 58.224C98.2697 58.736 98.6217 59.384 98.8777 60.168C99.1337 60.952 99.2617 61.88 99.2617 62.952C99.2617 64.136 99.0937 65.136 98.7577 65.952C98.4377 66.752 97.9977 67.4 97.4377 67.896C96.8937 68.392 96.2697 68.752 95.5657 68.976C94.8617 69.2 94.1417 69.312 93.4057 69.312C92.6697 69.312 92.0297 69.256 91.4857 69.144C90.9577 69.048 90.5177 68.936 90.1657 68.808C89.7497 68.648 89.4057 68.472 89.1337 68.28V51.024ZM91.0537 67.224C91.2617 67.304 91.4857 67.376 91.7257 67.44C91.9657 67.488 92.2217 67.536 92.4937 67.584C92.7817 67.616 93.0857 67.632 93.4057 67.632C94.1417 67.632 94.7577 67.528 95.2537 67.32C95.7497 67.112 96.1417 66.808 96.4297 66.408C96.7177 66.008 96.9177 65.528 97.0297 64.968C97.1577 64.392 97.2217 63.752 97.2217 63.048C97.2217 62.488 97.1577 61.928 97.0297 61.368C96.9177 60.808 96.7337 60.312 96.4777 59.88C96.2217 59.432 95.9017 59.072 95.5177 58.8C95.1497 58.512 94.7177 58.368 94.2217 58.368C93.8857 58.368 93.5337 58.44 93.1657 58.584C92.7977 58.712 92.4537 58.864 92.1337 59.04C91.7657 59.232 91.4057 59.448 91.0537 59.688V67.224ZM111 68.712C110.632 68.824 110.248 68.92 109.848 69C109.464 69.08 109.032 69.152 108.552 69.216C108.088 69.28 107.6 69.312 107.088 69.312C106.288 69.312 105.544 69.2 104.856 68.976C104.168 68.752 103.568 68.392 103.056 67.896C102.544 67.4 102.136 66.76 101.832 65.976C101.544 65.176 101.4 64.2 101.4 63.048C101.4 62.008 101.544 61.096 101.832 60.312C102.12 59.512 102.512 58.848 103.008 58.32C103.52 57.776 104.112 57.368 104.784 57.096C105.472 56.824 106.216 56.688 107.016 56.688C107.8 56.688 108.48 56.84 109.056 57.144C109.632 57.448 110.104 57.864 110.472 58.392C110.856 58.904 111.136 59.512 111.312 60.216C111.504 60.904 111.6 61.632 111.6 62.4L111.24 63.456H103.488C103.488 63.952 103.552 64.448 103.68 64.944C103.808 65.44 104.024 65.888 104.328 66.288C104.648 66.688 105.056 67.016 105.552 67.272C106.064 67.512 106.696 67.632 107.448 67.632C107.928 67.632 108.368 67.608 108.768 67.56C109.168 67.496 109.512 67.432 109.8 67.368C110.104 67.288 110.384 67.2 110.64 67.104L111 68.712ZM109.608 61.92C109.608 61.808 109.584 61.56 109.536 61.176C109.488 60.792 109.376 60.392 109.2 59.976C109.024 59.56 108.752 59.192 108.384 58.872C108.016 58.536 107.528 58.368 106.92 58.368C106.248 58.368 105.696 58.512 105.264 58.8C104.832 59.072 104.488 59.4 104.232 59.784C103.976 60.168 103.8 60.56 103.704 60.96C103.608 61.36 103.56 61.68 103.56 61.92H109.608ZM114.236 58.872C114.236 58.504 114.196 57.928 114.116 57.144L115.892 56.904L116.084 58.656H116.108C116.396 58.288 116.676 57.968 116.948 57.696C117.22 57.424 117.5 57.192 117.788 57C118.092 56.792 118.38 56.688 118.652 56.688C119.02 56.672 119.532 56.712 120.188 56.808L119.756 58.656C119.228 58.56 118.86 58.52 118.652 58.536C118.38 58.536 118.092 58.664 117.788 58.92C117.484 59.176 117.22 59.448 116.996 59.736C116.708 60.088 116.428 60.488 116.156 60.936V69H114.236V58.872ZM128.167 52.632H132.199C133.079 52.632 133.879 52.712 134.599 52.872C135.335 53.016 135.959 53.272 136.471 53.64C136.983 53.992 137.375 54.464 137.647 55.056C137.919 55.648 138.055 56.392 138.055 57.288C138.039 58.28 137.871 59.088 137.551 59.712C137.231 60.32 136.839 60.816 136.375 61.2C135.911 61.568 135.375 61.84 134.767 62.016V62.064C134.831 62.128 134.927 62.248 135.055 62.424C135.199 62.584 135.319 62.728 135.415 62.856L140.047 69H137.671L132.919 62.496H130.183V69H128.167V52.632ZM136.015 57.624C136.015 56.952 135.927 56.408 135.751 55.992C135.591 55.56 135.343 55.232 135.007 55.008C134.687 54.784 134.287 54.632 133.807 54.552C133.327 54.472 132.783 54.432 132.175 54.432H130.183V60.696H132.559C133.183 60.696 133.711 60.616 134.143 60.456C134.575 60.296 134.927 60.08 135.199 59.808C135.471 59.52 135.671 59.192 135.799 58.824C135.927 58.456 135.999 58.056 136.015 57.624ZM148.401 63.456C148.081 63.472 147.777 63.488 147.489 63.504C147.201 63.52 146.913 63.544 146.625 63.576C146.353 63.592 146.105 63.616 145.881 63.648C144.729 63.792 143.913 64.048 143.433 64.416C142.953 64.768 142.713 65.28 142.713 65.952C142.713 66.512 142.881 66.936 143.217 67.224C143.569 67.496 144.025 67.632 144.585 67.632C145.353 67.632 146.033 67.504 146.625 67.248C147.233 66.976 147.825 66.624 148.401 66.192V63.456ZM148.377 67.872C147.625 68.304 146.921 68.656 146.265 68.928C145.625 69.184 144.929 69.312 144.177 69.312C143.105 69.312 142.249 69.056 141.609 68.544C140.985 68.016 140.673 67.152 140.673 65.952C140.673 65.328 140.833 64.784 141.153 64.32C141.473 63.856 141.889 63.472 142.401 63.168C142.929 62.848 143.521 62.6 144.177 62.424C144.833 62.248 145.505 62.136 146.193 62.088C146.481 62.056 146.857 62.032 147.321 62.016C147.785 61.984 148.145 61.96 148.401 61.944C148.401 61.384 148.385 60.888 148.353 60.456C148.321 60.008 148.225 59.632 148.065 59.328C147.905 59.008 147.665 58.768 147.345 58.608C147.041 58.448 146.601 58.368 146.025 58.368C145.561 58.368 145.113 58.4 144.681 58.464C144.249 58.512 143.865 58.568 143.529 58.632C143.129 58.712 142.761 58.8 142.425 58.896L142.041 57.24C142.441 57.144 142.873 57.056 143.337 56.976C143.737 56.896 144.201 56.832 144.729 56.784C145.257 56.72 145.825 56.688 146.433 56.688C147.249 56.688 147.905 56.808 148.401 57.048C148.913 57.288 149.305 57.616 149.577 58.032C149.865 58.432 150.057 58.896 150.153 59.424C150.265 59.936 150.321 60.48 150.321 61.056V66.816C150.321 67.04 150.321 67.28 150.321 67.536C150.337 67.776 150.353 68.016 150.369 68.256C150.401 68.496 150.433 68.744 150.465 69L148.617 69.192L148.377 67.872ZM153.729 59.328C153.745 58.992 153.705 58.264 153.609 57.144L155.385 56.904L155.649 58.44C156.129 58.12 156.601 57.84 157.065 57.6C157.545 57.36 158.033 57.152 158.529 56.976C159.025 56.784 159.505 56.688 159.969 56.688C160.625 56.688 161.169 56.768 161.601 56.928C162.049 57.072 162.409 57.32 162.681 57.672C162.953 58.024 163.145 58.488 163.257 59.064C163.385 59.64 163.449 60.36 163.449 61.224V69H161.529V61.44C161.529 60.96 161.521 60.536 161.505 60.168C161.489 59.784 161.417 59.464 161.289 59.208C161.177 58.936 160.993 58.728 160.737 58.584C160.497 58.44 160.153 58.368 159.705 58.368C159.289 58.368 158.849 58.464 158.385 58.656C157.921 58.832 157.465 59.04 157.017 59.28C156.569 59.52 156.113 59.8 155.649 60.12V69H153.729V59.328ZM166.83 51.024L168.75 50.808V61.632L174.102 56.928H176.742L171.51 61.512L176.934 69H174.51L170.094 62.736L168.75 63.912V69H166.83V51.024Z" fill="#0F0F0F" fill-opacity="0.48"/>
<g clip-path="url(#clip0_175_1597)">
<path d="M54.2957 35.5302L54.7252 33.0136L65.6607 20.8413H56.7387L57.3472 17.2538H71.8443L71.4237 19.7704L60.4704 31.9427H69.4013L68.7928 35.5302H54.2957Z" fill="#1B1B1B"/>
<path d="M71.511 35.5302L73.8019 21.8229H78.1779L75.887 35.5302H71.511ZM76.2986 20.2166C75.6781 20.2166 75.174 20.0114 74.7862 19.6009C74.3985 19.1904 74.2463 18.6995 74.3299 18.1284C74.4134 17.5513 74.7057 17.0605 75.2068 16.6559C75.708 16.2514 76.2658 16.0491 76.8803 16.0491C77.5007 16.0491 77.9989 16.2514 78.3747 16.6559C78.7565 17.0605 78.9057 17.5513 78.8222 18.1284C78.7506 18.6995 78.4642 19.1904 77.9631 19.6009C77.4679 20.0114 76.9131 20.2166 76.2986 20.2166Z" fill="#1B1B1B"/>
<path d="M86.0909 17.2538L83.0483 35.5302H78.6723L81.7149 17.2538H86.0909Z" fill="#1B1B1B"/>
<path d="M93.2522 17.2538L90.2096 35.5302H85.8336L88.8762 17.2538H93.2522Z" fill="#1B1B1B"/>
<path d="M92.9949 35.5302L95.2858 21.8229H99.6618L97.3708 35.5302H92.9949ZM97.7825 20.2166C97.162 20.2166 96.6579 20.0114 96.2701 19.6009C95.8824 19.1904 95.7302 18.6995 95.8138 18.1284C95.8973 17.5513 96.1896 17.0605 96.6907 16.6559C97.1919 16.2514 97.7497 16.0491 98.3642 16.0491C98.9846 16.0491 99.4828 16.2514 99.8586 16.6559C100.24 17.0605 100.39 17.5513 100.306 18.1284C100.234 18.6995 99.9481 19.1904 99.447 19.6009C98.9518 20.0114 98.397 20.2166 97.7825 20.2166Z" fill="#1B1B1B"/>
<path d="M106.564 35.789C105.114 35.789 103.918 35.4915 102.975 34.8966C102.038 34.3016 101.379 33.4717 100.997 32.4068C100.616 31.3418 100.541 30.1044 100.774 28.6944C101.006 27.2904 101.487 26.0588 102.214 24.9999C102.942 23.9409 103.873 23.1169 105.006 22.5279C106.14 21.9389 107.426 21.6444 108.863 21.6444C110.307 21.6444 111.497 21.9419 112.434 22.5368C113.377 23.1318 114.039 23.9617 114.421 25.0266C114.808 26.0916 114.886 27.332 114.653 28.7479C114.421 30.152 113.937 31.3835 113.204 32.4425C112.47 33.4955 111.539 34.3165 110.412 34.9055C109.284 35.4945 108.001 35.789 106.564 35.789ZM107.056 32.496C107.593 32.496 108.073 32.3354 108.496 32.0141C108.926 31.6929 109.287 31.2437 109.579 30.6666C109.872 30.0895 110.08 29.4202 110.206 28.6587C110.331 27.9091 110.343 27.2517 110.242 26.6865C110.146 26.1154 109.943 25.6721 109.633 25.3568C109.323 25.0356 108.902 24.8749 108.371 24.8749C107.834 24.8749 107.351 25.0385 106.921 25.3658C106.492 25.687 106.131 26.1362 105.839 26.7133C105.552 27.2844 105.346 27.9537 105.221 28.7212C105.096 29.4708 105.081 30.1282 105.176 30.6934C105.272 31.2586 105.478 31.7018 105.794 32.023C106.11 32.3384 106.531 32.496 107.056 32.496Z" fill="#1B1B1B"/>
<path d="M121.468 27.7128L120.161 35.5302H115.785L118.076 21.8229H122.237L121.826 24.3395H121.978C122.407 23.5006 123.031 22.8432 123.848 22.3673C124.666 21.8854 125.584 21.6444 126.604 21.6444C127.565 21.6444 128.367 21.8586 129.012 22.287C129.656 22.7153 130.112 23.3162 130.381 24.0896C130.649 24.8571 130.694 25.7584 130.515 26.7936L129.047 35.5302H124.671L125.987 27.6503C126.118 26.8947 126.026 26.3028 125.71 25.8744C125.399 25.4401 124.892 25.223 124.188 25.223C123.729 25.223 123.308 25.3241 122.926 25.5264C122.551 25.7227 122.234 26.0053 121.978 26.3742C121.727 26.743 121.557 27.1892 121.468 27.7128Z" fill="#1B1B1B"/>
<path d="M132.356 35.5302L135.399 17.2538H138.164L135.515 33.1564H143.82L143.426 35.5302H132.356Z" fill="#2131E5"/>
<path d="M146.366 35.5302L148.657 21.8229H151.332L149.041 35.5302H146.366ZM150.554 19.6812C150.088 19.6812 149.695 19.5265 149.372 19.2171C149.056 18.9018 148.91 18.527 148.934 18.0927C148.958 17.6525 149.143 17.2776 149.489 16.9683C149.835 16.653 150.238 16.4953 150.697 16.4953C151.162 16.4953 151.553 16.653 151.869 16.9683C152.185 17.2776 152.335 17.6525 152.317 18.0927C152.293 18.527 152.108 18.9018 151.762 19.2171C151.422 19.5265 151.019 19.6812 150.554 19.6812Z" fill="#2131E5"/>
<path d="M156.668 27.3915L155.326 35.5302H152.65L154.941 21.8229H157.509L157.133 24.0539H157.303C157.739 23.3222 158.332 22.7391 159.084 22.3048C159.842 21.8646 160.737 21.6444 161.769 21.6444C162.7 21.6444 163.481 21.8408 164.113 22.2334C164.752 22.6201 165.202 23.1972 165.465 23.9647C165.733 24.7321 165.775 25.6811 165.59 26.8114L164.122 35.5302H161.447L162.852 27.1327C163.013 26.1392 162.881 25.3628 162.458 24.8035C162.04 24.2384 161.375 23.9558 160.462 23.9558C159.842 23.9558 159.266 24.0896 158.735 24.3573C158.21 24.6251 157.766 25.0177 157.402 25.5353C157.044 26.0469 156.799 26.6657 156.668 27.3915Z" fill="#2131E5"/>
<path d="M172.839 17.2538L176.042 24.402H176.185L181.752 17.2538H185L177.787 26.392L181.993 35.5302H178.798L175.577 28.4802H175.434L169.85 35.5302H166.601L173.984 26.392L169.68 17.2538H172.839Z" fill="#2131E5"/>
<path d="M22.4764 6.17198L22.7246 11.6118C22.9239 15.984 24.7551 20.124 27.8585 23.2188C30.962 26.3136 35.1135 28.1397 39.4979 28.3385L44.9528 28.586L39.4979 28.8335C35.1135 29.0323 30.962 30.8583 27.8585 33.9532C24.7551 37.048 22.9239 41.188 22.7246 45.5602L22.4764 51L22.2282 45.5602C22.0289 41.188 20.1977 37.048 17.0943 33.9532C13.9908 30.8583 9.83932 29.0323 5.45492 28.8335L0 28.586L5.45492 28.3385C9.83932 28.1397 13.9908 26.3136 17.0943 23.2188C20.1977 20.124 22.0289 15.984 22.2282 11.6118L22.4764 6.17198Z" fill="#2131E5"/>
<path d="M39.4151 6.17198L39.6256 8.66836C39.7638 10.3168 40.4832 11.863 41.6561 13.0327C42.8291 14.2024 44.3796 14.9198 46.0326 15.0576L48.536 15.2675L46.0326 15.4774C44.3796 15.6153 42.8291 16.3327 41.6561 17.5023C40.4832 18.672 39.7638 20.2183 39.6256 21.8667L39.4151 24.3631L39.2046 21.8667C39.0664 20.2183 38.347 18.672 37.1741 17.5023C36.0011 16.3327 34.4506 15.6153 32.7976 15.4774L30.2943 15.2675L32.7976 15.0576C34.4506 14.9198 36.0011 14.2024 37.1741 13.0327C38.347 11.863 39.0664 10.3168 39.2046 8.66836L39.4151 6.17198Z" fill="#2131E5"/>
<path d="M10.7496 34.758L10.915 36.7194C11.0236 38.0146 11.5888 39.2295 12.5104 40.1485C13.432 41.0676 14.6503 41.6312 15.9491 41.7395L17.916 41.9045L15.9491 42.0694C14.6503 42.1777 13.432 42.7414 12.5104 43.6604C11.5888 44.5794 11.0236 45.7943 10.915 47.0895L10.7496 49.051L10.5842 47.0895C10.4756 45.7943 9.91035 44.5794 8.98877 43.6604C8.06718 42.7414 6.84888 42.1777 5.55009 42.0694L3.58319 41.9045L5.55009 41.7395C6.84888 41.6312 8.06718 41.0676 8.98877 40.1485C9.91035 39.2295 10.4756 38.0146 10.5842 36.7194L10.7496 34.758Z" fill="#2131E5"/>
<path d="M8.46937 11.0446L8.58212 12.3819C8.65617 13.265 9.04157 14.0934 9.66992 14.72C10.2983 15.3466 11.1289 15.7309 12.0145 15.8048L13.3555 15.9172L12.0145 16.0296C11.1289 16.1035 10.2983 16.4878 9.66992 17.1144C9.04157 17.741 8.65617 18.5694 8.58212 19.4525L8.46937 20.7898L8.35661 19.4525C8.28257 18.5694 7.89717 17.741 7.26881 17.1144C6.64046 16.4878 5.8098 16.1035 4.92426 16.0296L3.58319 15.9172L4.92426 15.8048C5.8098 15.7309 6.64046 15.3466 7.26881 14.72C7.89717 14.0934 8.28257 13.265 8.35661 12.3819L8.46937 11.0446Z" fill="#2131E5"/>
<path d="M33.5517 2.92357L33.6392 3.36938C33.7504 3.93641 34.0281 4.4555 34.4354 4.85765C34.8427 5.25979 35.3603 5.52594 35.9194 5.62073L36.8092 5.77218L35.9841 5.91223C35.4105 6.01029 34.8812 6.28864 34.4702 6.70843C34.0591 7.12821 33.7868 7.66848 33.6913 8.25379L33.5517 9.09555L33.4121 8.25379C33.3161 7.66891 33.0436 7.12917 32.6326 6.70985C32.2216 6.29052 31.6926 6.01252 31.1193 5.91461L30.2943 5.77218L31.1854 5.62073C31.7445 5.52594 32.2622 5.25979 32.6695 4.85765C33.0768 4.4555 33.3544 3.93641 33.4656 3.36938L33.5517 2.92357Z" fill="#2131E5"/>
<path d="M45.2785 0L45.366 0.445807C45.4772 1.01284 45.7549 1.53193 46.1622 1.93408C46.5695 2.33622 47.0871 2.60237 47.6462 2.69716L48.536 2.84861L47.7109 2.98866C47.1373 3.08672 46.6081 3.36507 46.197 3.78486C45.786 4.20465 45.5137 4.74491 45.4182 5.33022L45.2785 6.17198L45.1389 5.33022C45.043 4.74534 44.7705 4.2056 44.3595 3.78628C43.9485 3.36695 43.4194 3.08895 42.8462 2.99104L42.0211 2.84861L42.9122 2.69716C43.4714 2.60237 43.989 2.33622 44.3963 1.93408C44.8036 1.53193 45.0813 1.01284 45.1925 0.445807L45.2785 0Z" fill="#2131E5"/>
</g>
<defs>
<clipPath id="clip0_175_1597">
<rect width="185" height="51" fill="white"/>
</clipPath>
</defs>
</svg>
